:SAMPLES-PER-SECOND 30
:FRAME-RANGE 1-2091
:FULLY-SPECIFIED
:DEGREES
1765
root  53.7682 38.4833 -125.969 -8.60338 71.4586 -9.58545
RightUpLeg  -19.1066 0.0123915 9.63851
RightLeg  17.0796 -17.2167 -1.87879
RightFoot  -2.29212 0.696807 -8.97403
RightToes  5.38607e-012 1.2921e-014 -6.02303e-014
Spine  -5.28356 -6.07222 2.42208
Spine1  7.0997 -7.09136 5.17319
HEad  21.2754 -43.246 -1.00761
LeftShoulder1  1.15753 -1.19848 -19.4479
LeftArm  -0.919332 -9.91933 -51.3436
LeftForeArm  30.6684 -6.28313 -11.2984
LeftHand  -0.0804747 3.86338 4.83325
RightShoulder  0.484296 -1.82769 26.3437
RightArm  -34.5139 -12.2865 35.6133
RightForeArm  55.7838 -4.85754 -2.05214
RightHand  0.708895 -10.0541 -18.0507
LeftUpLeg  -3.75718 2.57256 6.56481
LeftLeg  54.3088 -8.28225 -11.7289
LeftFoot  10.8178 4.47334 -22.9146
LeftToes  -7.20997e-011 3.75522e-011 -2.80735e-011
1766
root  54.917 38.5235 -125.44 -8.76531 70.0188 -9.58954
RightUpLeg  -17.3388 -0.766439 10.2136
RightLeg  18.3809 -15.4699 -1.17859
RightFoot  -4.84716 0.526016 -9.81427
RightToes  5.38607e-012 1.2921e-014 -6.02303e-014
Spine  -5.21041 -6.14953 3.25692
Spine1  7.68757 -6.86894 4.67172
HEad  21.2316 -43.5158 -0.0862464
LeftShoulder1  1.1537 -1.16265 -19.5771
LeftArm  -0.294532 -6.62543 -51.0876
LeftForeArm  31.6314 -3.77394 -12.1306
LeftHand  -0.0402161 3.67312 1.44872
RightShoulder  0.490304 -1.8662 27.7007
RightArm  -33.1074 -7.79641 37.916
RightForeArm  60.8334 -4.84794 -1.15738
RightHand  0.754577 -10.3428 -18.0687
LeftUpLeg  -8.64156 1.29928 7.03128
LeftLeg  61.1135 -5.94329 -10.9803
LeftFoot  12.5076 4.82115 -22.9269
LeftToes  -7.20997e-011 3.75522e-011 -2.80735e-011
1767
root  56.1254 38.6427 -124.825 -6.57107 66.2883 -7.1001
RightUpLeg  -14.7404 -0.312579 10.9122
RightLeg  18.7027 -12.2915 -1.17488
RightFoot  -7.00186 0.327966 -9.86791
RightToes  5.38607e-012 1.2921e-014 -6.02303e-014
Spine  -5.89542 -5.42878 3.91969
Spine1  8.56777 -5.70146 3.15632
HEad  21.8929 -43.7562 -0.597331
LeftShoulder1  1.02778 -0.705158 -19.3656
LeftArm  -0.782866 -2.92581 -50.5633
LeftForeArm  34.0679 -0.455985 -12.6077
LeftHand  -0.0490602 4.28208 2.98207
RightShoulder  0.625779 -1.48144 28.0667
RightArm  -29.5925 -4.08856 41.4747
RightForeArm  64.954 -5.09312 1.1239
RightHand  0.709636 -10.2934 -17.2429
LeftUpLeg  -12.1189 2.20564 7.05056
LeftLeg  64.9623 -4.2183 -9.15948
LeftFoot  7.8989 3.02435 -18.0016
LeftToes  -7.20997e-011 3.75522e-011 -2.80735e-011
1768
root  57.3285 38.7577 -124.237 -4.65497 62.9966 -4.61865
RightUpLeg  -11.9106 -1.44043 10.5979
RightLeg  18.9087 -8.23322 -0.154218
RightFoot  -9.07181 0.151317 -10.681
RightToes  5.38607e-012 1.2921e-014 -6.02303e-014
Spine  -5.60106 -5.01175 3.69316
Spine1  8.24729 -5.04498 2.59614
HEad  22.6241 -44.4243 -2.40342
LeftShoulder1  0.925991 -0.249638 -19.8149
LeftArm  -0.580658 1.41728 -49.8226
LeftForeArm  34.1339 2.1625 -13.0606
LeftHand  -0.0197577 5.72972 2.83272
RightShoulder  0.762204 -1.06283 27.811
RightArm  -24.229 -1.58212 44.9787
RightForeArm  66.2266 -5.59019 4.3677
RightHand  0.60824 -9.88567 -16.2504
LeftUpLeg  -15.1442 1.74216 6.52105
LeftLeg  65.9603 -2.16233 -4.62961
LeftFoot  5.40888 2.08157 -14.3023
LeftToes  -7.20997e-011 3.75522e-011 -2.80735e-011
1769
root  58.4719 38.8158 -123.64 -3.28284 59.6483 -3.00494
RightUpLeg  -9.76227 -2.05658 10.4218
RightLeg  19.5747 -5.4057 0.156117
RightFoot  -10.6408 0.0012683 -11.8603
RightToes  5.38607e-012 1.2921e-014 -6.02303e-014
Spine  -5.27246 -4.70342 3.64792
Spine1  7.6395 -4.58636 2.04706
HEad  22.7123 -46.2281 -4.06553
LeftShoulder1  0.794924 0.329948 -20.5287
LeftArm  -0.839605 6.37587 -48.4002
LeftForeArm  35.3998 3.76579 -13.2092
LeftHand  -0.0150392 6.3063 2.12408
RightShoulder  0.818127 -0.883275 27.6173
RightArm  -18.1079 1.00082 48.504
RightForeArm  64.7933 -6.1556 7.50796
RightHand  0.511416 -9.20678 -16.1791
LeftUpLeg  -18.2049 0.895828 6.58638
LeftLeg  64.8854 -0.254325 0.0715918
LeftFoot  3.65453 1.62336 -12.4646
LeftToes  -7.20997e-011 3.75522e-011 -2.80735e-011
1770
root  59.6158 38.8509 -123.061 -2.3073 56.119 -1.84888
RightUpLeg  -7.61538 -2.04683 10.0559
RightLeg  20.2811 -2.08984 0.469629
RightFoot  -12.3193 -0.183506 -11.74
RightToes  5.38607e-012 1.2921e-014 -6.02303e-014
Spine  -4.97488 -4.27846 3.73381
Spine1  7.16936 -4.13323 1.7168
HEad  21.7605 -47.7373 -5.28741
LeftShoulder1  0.659132 0.94488 -21.8137
LeftArm  -1.83303 11.2765 -46.9018
LeftForeArm  36.4105 5.21876 -13.04
LeftHand  -0.0171203 6.36223 1.83068
RightShoulder  0.910918 -0.533651 26.7049
RightArm  -11.963 3.44717 52.0163
RightForeArm  61.72 -2.40009 10.6711
RightHand  0.44651 -8.44852 -17.58
LeftUpLeg  -20.7597 0.0222254 6.72168
LeftLeg  61.7194 0.99643 2.60752
LeftFoot  1.65014 1.12133 -9.91899
LeftToes  -7.20997e-011 3.75522e-011 -2.80735e-011
1771
root  60.7602 38.8743 -122.45 -1.04046 52.5363 -0.30603
RightUpLeg  -5.06156 -2.04087 9.06905
RightLeg  20.0819 0.892439 0.923861
RightFoot  -14.1126 -0.393403 -12.2815
RightToes  5.38607e-012 1.2921e-014 -6.02303e-014
Spine  -5.16207 -3.88591 3.27238
Spine1  7.23825 -3.69004 0.913364
HEad  20.341 -49.0428 -5.54915
LeftShoulder1  0.507616 1.52914 -22.5088
LeftArm  -2.92653 16.5887 -45.9572
LeftForeArm  36.5839 6.10643 -12.7711
LeftHand  -0.029001 5.24397 2.04475
RightShoulder  1.04512 -0.0504483 25.9591
RightArm  -5.18908 6.03046 55.6004
RightForeArm  57.4513 3.55363 12.574
RightHand  0.446885 -8.24978 -18.7144
LeftUpLeg  -22.6167 -1.11604 6.74346
LeftLeg  56.5603 3.03092 5.44456
LeftFoot  -0.794869 0.772299 -8.30722
LeftToes  -7.20997e-011 3.75522e-011 -2.80735e-011
